<?xml version="1.0" encoding="UTF-8"?>
<svg xmlns="http://www.w3.org/2000/svg" xmlns:xlink="http://www.w3.org/1999/xlink" width="20px" height="20px" viewBox="0 0 20 20" version="1.1">
<g id="surface1">
<path style=" stroke:none;fill-rule:nonzero;fill:red;fill-opacity:1;" d="M 16.273438 2.742188 L 13.222656 2.742188 L 13.222656 0 L 6.773438 0.00390625 L 6.777344 2.746094 L 3.726562 2.75 L 3.726562 5.3125 L 16.273438 5.3125 Z M 8.082031 1.308594 L 11.914062 1.308594 L 11.914062 2.746094 L 8.082031 2.746094 Z M 8.082031 1.308594 "/>
<path style=" stroke:none;fill-rule:nonzero;fill:red;fill-opacity:1;" d="M 3.726562 20 L 16.273438 20 L 16.273438 5.964844 L 3.726562 5.964844 Z M 12.941406 7.882812 L 13.59375 7.882812 L 13.59375 18.082031 L 12.941406 18.082031 Z M 9.671875 7.882812 L 10.328125 7.882812 L 10.328125 18.082031 L 9.671875 18.082031 Z M 6.40625 7.882812 L 7.058594 7.882812 L 7.058594 18.082031 L 6.40625 18.082031 Z M 6.40625 7.882812 "/>
</g>
</svg>
