
  <svg xmlns="http://www.w3.org/2000/svg" xmlns:xlink="http://www.w3.org/1999/xlink" width="20px" height="20px"
    viewBox="0 0 20 20" version="1.1">
    <g id="surface1">
      <path style=" stroke:none;fill-rule:nonzero;fill:green;"
        d="M 10 5 L 10 7.5 L 13.332031 4.167969 L 10 0.832031 L 10 3.332031 C 6.316406 3.332031 3.332031 6.316406 3.332031 10 C 3.332031 11.308594 3.714844 12.519531 4.367188 13.550781 L 5.582031 12.332031 C 5.210938 11.636719 5 10.847656 5 10 C 5 7.238281 7.238281 5 10 5 Z M 15.632812 6.449219 L 14.417969 7.667969 C 14.789062 8.363281 15 9.152344 15 10 C 15 12.761719 12.761719 15 10 15 L 10 12.5 L 6.667969 15.832031 L 10 19.167969 L 10 16.667969 C 13.683594 16.667969 16.667969 13.683594 16.667969 10 C 16.667969 8.691406 16.285156 7.480469 15.632812 6.449219 Z M 15.632812 6.449219 " />
    </g>
  </svg>
