<?xml version="1.0" encoding="UTF-8"?>
<svg xmlns="http://www.w3.org/2000/svg" xmlns:xlink="http://www.w3.org/1999/xlink" width="15px" height="15px" viewBox="0 0 15 15" version="1.1">
<g id="surface1">
<path style=" stroke:none;fill-rule:nonzero;fill:white;" d="M 6.875 1.875 L 6.875 11.617188 L 3.566406 8.308594 C 3.324219 8.0625 2.925781 8.0625 2.683594 8.308594 C 2.4375 8.550781 2.4375 8.949219 2.683594 9.191406 L 7.058594 13.566406 C 7.300781 13.8125 7.699219 13.8125 7.941406 13.566406 L 12.316406 9.191406 C 12.4375 9.070312 12.5 8.910156 12.5 8.75 C 12.5 8.589844 12.4375 8.429688 12.316406 8.308594 C 12.074219 8.0625 11.675781 8.0625 11.433594 8.308594 L 8.125 11.617188 L 8.125 1.875 C 8.125 1.53125 7.84375 1.25 7.5 1.25 C 7.15625 1.25 6.875 1.53125 6.875 1.875 Z M 6.875 1.875 "/>
</g>
</svg>
